<?xml version="1.0" encoding="iso-8859-1"?>
<!-- Generator: Adobe Illustrator 19.0.0, SVG Export Plug-In . SVG Version: 6.00 Build 0)  -->
<svg version="1.1" id="Capa_1" xmlns="http://www.w3.org/2000/svg" xmlns:xlink="http://www.w3.org/1999/xlink" x="0px" y="0px"
	 viewBox="0 0 512 512" style="enable-background:new 0 0 512 512;" xml:space="preserve">
<g>
	<g>
		<path d="M482,329c-1.903,0-3.791,0.192-5.643,0.546l-31.451-57.204C449.403,266.995,452,260.143,452,253
			c0-7.145-2.598-13.997-7.093-19.343l31.45-57.203c1.852,0.354,3.74,0.546,5.643,0.546c16.542,0,30-13.458,30-30s-13.458-30-30-30
			s-30,13.458-30,30c0,7.145,2.598,13.997,7.093,19.343l-31.45,57.203C425.79,223.192,423.903,223,422,223
			c-13.036,0-24.152,8.361-28.28,20h-79.44c-4.128-11.639-15.243-20-28.28-20c-1.903,0-3.791,0.192-5.643,0.546l-31.451-57.204
			C253.403,160.995,256,154.143,256,147c0-7.032-2.523-13.777-6.888-19.085l30.911-51.518C281.982,76.795,283.983,77,286,77
			c16.542,0,30-13.458,30-30s-13.458-30-30-30s-30,13.458-30,30c0,7.032,2.522,13.777,6.888,19.085l-30.911,51.518
			c-1.958-0.398-3.96-0.603-5.977-0.603c-13.036,0-24.152,8.361-28.28,20h-79.44c-4.128-11.639-15.243-20-28.28-20
			c-16.542,0-30,13.458-30,30c0,7.145,2.598,13.997,7.093,19.343l-31.45,57.204C33.791,223.192,31.903,223,30,223
			c-16.542,0-30,13.458-30,30s13.458,30,30,30c1.903,0,3.791-0.191,5.643-0.546l31.451,57.204C62.597,345.005,60,351.856,60,359
			c0,7.145,2.598,13.997,7.093,19.343l-31.45,57.204C33.791,435.192,31.903,435,30,435c-16.542,0-30,13.458-30,30s13.458,30,30,30
			s30-13.458,30-30c0-7.145-2.598-13.997-7.093-19.343l31.45-57.204C86.209,388.808,88.097,389,90,389
			c13.036,0,24.152-8.361,28.28-20h79.44c4.128,11.639,15.243,20,28.28,20c1.903,0,3.791-0.192,5.643-0.546l31.451,57.205
			C258.597,451.005,256,457.857,256,465c0,16.542,13.458,30,30,30c13.036,0,24.152-8.361,28.28-20h79.44
			c4.128,11.639,15.243,20,28.28,20c16.542,0,30-13.458,30-30c0-7.145-2.598-13.997-7.093-19.343l31.45-57.203
			c1.853,0.354,3.74,0.546,5.643,0.546c16.542,0,30-13.458,30-30S498.542,329,482,329z M482,137c5.514,0,10,4.486,10,10
			c0,5.514-4.486,10-10,10c-1.815,0-3.593-0.491-5.147-1.426C473.814,153.752,472,150.547,472,147C472,141.486,476.486,137,482,137z
			 M286,37c5.514,0,10,4.486,10,10s-4.486,10-10,10c-1.815,0-3.591-0.491-5.145-1.425C280.755,55.472,276,52.94,276,47
			C276,41.486,280.486,37,286,37z M30,475c-5.514,0-10-4.486-10-10c0-5.514,4.486-10,10-10c5.375,0,10,4.304,10,10
			C40,470.514,35.514,475,30,475z M422,243c5.376,0,10,4.304,10,10c0,5.758-4.687,10-10,10c-5.514,0-10-4.486-10-10
			C412,247.486,416.486,243,422,243z M286,243c5.514,0,10,4.486,10,10c0,5.514-4.486,10-10,10c-5.376,0-10-4.304-10-10
			C276,247.328,280.604,243,286,243z M231.145,138.425c0.1,0.103,4.855,2.636,4.855,8.575c0,5.768-4.697,10-10,10
			c-5.514,0-10-4.486-10-10C216,139.22,224.527,134.449,231.145,138.425z M90,137c5.514,0,10,4.486,10,10c0,5.514-4.486,10-10,10
			c-5.375,0-10-4.304-10-10C80,141.486,84.486,137,90,137z M30,263c-5.514,0-10-4.486-10-10c0-5.514,4.486-10,10-10
			c5.375,0,10,4.304,10,10C40,258.826,35.253,263,30,263z M90,369c-5.375,0-10-4.304-10-10c0-5.676,4.608-10,10-10
			c5.514,0,10,4.486,10,10C100,364.514,95.514,369,90,369z M197.72,349h-79.44c-4.128-11.639-15.243-20-28.28-20
			c-1.903,0-3.791,0.192-5.643,0.546l-31.451-57.204C57.403,266.995,60,260.144,60,253c0-7.145-2.598-13.997-7.093-19.343
			l31.45-57.204C86.209,176.808,88.097,177,90,177c13.036,0,24.152-8.361,28.28-20h79.44c4.128,11.639,15.243,20,28.28,20
			c1.903,0,3.791-0.192,5.643-0.546l31.451,57.205C258.597,239.005,256,245.857,256,253c0,7.145,2.598,13.997,7.093,19.343
			l-31.45,57.203c-1.852-0.354-3.74-0.546-5.643-0.546C212.964,329,201.848,337.361,197.72,349z M231.147,367.574
			c-0.003,0.002-0.006,0.004-0.009,0.006c-1.546,0.929-3.323,1.42-5.138,1.42c-5.514,0-10-4.486-10-10c0-5.514,4.486-10,10-10
			c1.815,0,3.592,0.491,5.147,1.426c3.039,1.822,4.853,5.027,4.853,8.574S234.186,365.752,231.147,367.574z M286,475
			c-5.514,0-10-4.486-10-10c0-5.672,4.604-10,10-10c5.514,0,10,4.486,10,10C296,470.514,291.514,475,286,475z M422,475
			c-5.514,0-10-4.486-10-10c0-5.514,4.486-10,10-10c5.376,0,10,4.304,10,10C432,470.514,427.514,475,422,475z M459.094,378.342
			l-31.451,57.204C425.79,435.192,423.903,435,422,435c-13.036,0-24.152,8.361-28.28,20h-79.44c-4.128-11.639-15.243-20-28.28-20
			c-1.903,0-3.791,0.192-5.643,0.546l-31.451-57.204C253.403,372.995,256,366.143,256,359c0-7.145-2.598-13.997-7.093-19.343
			l31.45-57.203c1.852,0.354,3.74,0.546,5.643,0.546c13.036,0,24.152-8.361,28.28-20h79.44c4.128,11.639,15.243,20,28.28,20
			c1.903,0,3.791-0.191,5.643-0.546l31.451,57.204C454.597,345.005,452,351.857,452,359S454.597,372.995,459.094,378.342z M482,369
			c-5.328,0-10-4.259-10-10c0-5.672,4.604-10,10-10c5.514,0,10,4.486,10,10C492,364.514,487.514,369,482,369z"/>
	</g>
</g>
<g>
</g>
<g>
</g>
<g>
</g>
<g>
</g>
<g>
</g>
<g>
</g>
<g>
</g>
<g>
</g>
<g>
</g>
<g>
</g>
<g>
</g>
<g>
</g>
<g>
</g>
<g>
</g>
<g>
</g>
</svg>
